<?xml version="1.0" encoding="iso-8859-1"?>
<!-- Generator: Adobe Illustrator 16.0.0, SVG Export Plug-In . SVG Version: 6.00 Build 0)  -->
<!DOCTYPE svg PUBLIC "-//W3C//DTD SVG 1.1//EN" "http://www.w3.org/Graphics/SVG/1.1/DTD/svg11.dtd">
<svg version="1.1" id="Capa_1" xmlns="http://www.w3.org/2000/svg" xmlns:xlink="http://www.w3.org/1999/xlink" x="0px" y="0px"
	 width="53.181px" height="53.181px" viewBox="0 0 53.181 53.181" style="enable-background:new 0 0 53.181 53.181;"
	 xml:space="preserve">
<g>
	<g>
		<path d="M53.176,1.179c0-0.007,0-0.014,0-0.021V0H36.211c-0.646,0-1.168,0.523-1.168,1.168s0.522,1.168,1.168,1.168h12.982
			L26.88,24.649c-0.072,0.075-0.117,0.164-0.166,0.251H11.312c-0.642,0-1.168,0.522-1.168,1.167c0,0.644,0.526,1.168,1.168,1.168
			h14.632l0.005,14.631c0,0.646,0.523,1.168,1.167,1.168c0.643,0,1.169-0.522,1.169-1.168l-0.004-15.397
			c0.087-0.05,0.178-0.093,0.251-0.168L50.84,3.992l0.005,12.978c0,0.645,0.524,1.168,1.168,1.168c0.646,0,1.168-0.523,1.168-1.168
			L53.176,1.179z"/>
		<path d="M6.239,29.973c-0.645,0-1.168,0.524-1.168,1.168s0.523,1.168,1.168,1.168h14.632l0.002,14.636
			c0,0.643,0.524,1.168,1.168,1.168c0.645,0,1.168-0.525,1.168-1.168l-0.002-16.972H6.239L6.239,29.973z"/>
		<path d="M1.168,35.044C0.523,35.044,0,35.567,0,36.212s0.523,1.168,1.168,1.168h14.629L15.8,52.013
			c0,0.646,0.522,1.168,1.168,1.168c0.644,0,1.167-0.522,1.167-1.168l-0.002-16.969H1.168z"/>
	</g>
</g>
<g>
</g>
<g>
</g>
<g>
</g>
<g>
</g>
<g>
</g>
<g>
</g>
<g>
</g>
<g>
</g>
<g>
</g>
<g>
</g>
<g>
</g>
<g>
</g>
<g>
</g>
<g>
</g>
<g>
</g>
</svg>
